<mxfile host="app.diagrams.net" modified="2021-12-30T07:07:29.073Z" agent="5.0 (Windows NT 10.0; Win64; x64) AppleWebKit/537.36 (KHTML, like Gecko) Chrome/96.0.4664.110 Safari/537.36" etag="QRT8pb4KMGVP0j5W-8xL" version="16.1.0" type="github" pages="3">
  <diagram name="事件流程图" id="74e2e168-ea6b-b213-b513-2b3c1d86103e">
    <mxGraphModel dx="2412" dy="724" grid="1" gridSize="10" guides="1" tooltips="1" connect="1" arrows="1" fold="1" page="1" pageScale="1" pageWidth="1100" pageHeight="850" background="none" math="0" shadow="0">
      <root>
        <mxCell id="0" />
        <mxCell id="1" parent="0" />
        <mxCell id="77e6c97f196da883-1" value="流程" style="swimlane;html=1;childLayout=stackLayout;startSize=20;rounded=0;shadow=0;labelBackgroundColor=none;strokeWidth=1;fontFamily=Verdana;fontSize=8;align=center;" parent="1" vertex="1">
          <mxGeometry x="-240" y="40" width="1210" height="750" as="geometry" />
        </mxCell>
        <mxCell id="77e6c97f196da883-2" value="第三方" style="swimlane;html=1;startSize=20;" parent="77e6c97f196da883-1" vertex="1">
          <mxGeometry y="20" width="160" height="730" as="geometry" />
        </mxCell>
        <mxCell id="77e6c97f196da883-8" value="第三方/rcs/&lt;br&gt;rpm" style="rounded=1;whiteSpace=wrap;html=1;shadow=0;labelBackgroundColor=none;strokeWidth=1;fontFamily=Verdana;fontSize=8;align=center;glass=0;sketch=0;" parent="77e6c97f196da883-2" vertex="1">
          <mxGeometry x="20" y="65" width="100" height="45" as="geometry" />
        </mxCell>
        <mxCell id="77e6c97f196da883-26" value="pull/push" style="edgeStyle=orthogonalEdgeStyle;rounded=1;html=1;labelBackgroundColor=none;startArrow=none;startFill=0;startSize=5;endArrow=classicThin;endFill=1;endSize=5;jettySize=auto;orthogonalLoop=1;strokeWidth=1;fontFamily=Verdana;fontSize=8" parent="77e6c97f196da883-1" source="77e6c97f196da883-8" target="77e6c97f196da883-11" edge="1">
          <mxGeometry relative="1" as="geometry">
            <Array as="points">
              <mxPoint x="160" y="108" />
              <mxPoint x="160" y="108" />
            </Array>
          </mxGeometry>
        </mxCell>
        <mxCell id="77e6c97f196da883-3" value="事件存储器" style="swimlane;html=1;startSize=20;" parent="77e6c97f196da883-1" vertex="1">
          <mxGeometry x="160" y="20" width="160" height="730" as="geometry" />
        </mxCell>
        <mxCell id="77e6c97f196da883-11" value="接收" style="rounded=1;whiteSpace=wrap;html=1;shadow=0;labelBackgroundColor=none;strokeWidth=1;fontFamily=Verdana;fontSize=8;align=center;" parent="77e6c97f196da883-3" vertex="1">
          <mxGeometry x="30" y="65" width="100" height="45" as="geometry" />
        </mxCell>
        <mxCell id="77e6c97f196da883-9" value="转换为Object" style="rounded=1;whiteSpace=wrap;html=1;shadow=0;labelBackgroundColor=none;strokeWidth=1;fontFamily=Verdana;fontSize=8;align=center;" parent="77e6c97f196da883-3" vertex="1">
          <mxGeometry x="30" y="140" width="100" height="40" as="geometry" />
        </mxCell>
        <mxCell id="77e6c97f196da883-27" style="edgeStyle=orthogonalEdgeStyle;rounded=1;html=1;labelBackgroundColor=none;startArrow=none;startFill=0;startSize=5;endArrow=classicThin;endFill=1;endSize=5;jettySize=auto;orthogonalLoop=1;strokeWidth=1;fontFamily=Verdana;fontSize=8" parent="77e6c97f196da883-3" source="77e6c97f196da883-11" target="77e6c97f196da883-9" edge="1">
          <mxGeometry relative="1" as="geometry">
            <Array as="points">
              <mxPoint x="80" y="170" />
              <mxPoint x="80" y="170" />
            </Array>
          </mxGeometry>
        </mxCell>
        <mxCell id="77e6c97f196da883-12" value="转换为json" style="rounded=1;whiteSpace=wrap;html=1;shadow=0;labelBackgroundColor=none;strokeWidth=1;fontFamily=Verdana;fontSize=8;align=center;" parent="77e6c97f196da883-3" vertex="1">
          <mxGeometry x="30" y="210" width="100" height="40" as="geometry" />
        </mxCell>
        <mxCell id="77e6c97f196da883-28" style="edgeStyle=orthogonalEdgeStyle;rounded=1;html=1;labelBackgroundColor=none;startArrow=none;startFill=0;startSize=5;endArrow=classicThin;endFill=1;endSize=5;jettySize=auto;orthogonalLoop=1;strokeWidth=1;fontFamily=Verdana;fontSize=8" parent="77e6c97f196da883-3" source="77e6c97f196da883-9" target="77e6c97f196da883-12" edge="1">
          <mxGeometry relative="1" as="geometry" />
        </mxCell>
        <mxCell id="8WCsBVq4_sCp6lZoLzIq-9" style="edgeStyle=orthogonalEdgeStyle;rounded=0;comic=0;sketch=0;jumpStyle=none;orthogonalLoop=1;jettySize=auto;html=1;exitX=0.5;exitY=1;exitDx=0;exitDy=0;shadow=0;endFill=1;strokeColor=default;" parent="77e6c97f196da883-3" source="8WCsBVq4_sCp6lZoLzIq-7" target="8WCsBVq4_sCp6lZoLzIq-8" edge="1">
          <mxGeometry relative="1" as="geometry" />
        </mxCell>
        <mxCell id="8WCsBVq4_sCp6lZoLzIq-7" value="存储DB" style="rounded=1;whiteSpace=wrap;html=1;shadow=0;labelBackgroundColor=none;strokeWidth=1;fontFamily=Verdana;fontSize=8;align=center;" parent="77e6c97f196da883-3" vertex="1">
          <mxGeometry x="30" y="280" width="100" height="40" as="geometry" />
        </mxCell>
        <mxCell id="77e6c97f196da883-29" style="edgeStyle=orthogonalEdgeStyle;rounded=1;html=1;labelBackgroundColor=none;startArrow=none;startFill=0;startSize=5;endArrow=classicThin;endFill=1;endSize=5;jettySize=auto;orthogonalLoop=1;strokeWidth=1;fontFamily=Verdana;fontSize=8;entryX=0.5;entryY=0;entryDx=0;entryDy=0;" parent="77e6c97f196da883-3" source="77e6c97f196da883-12" target="8WCsBVq4_sCp6lZoLzIq-7" edge="1">
          <mxGeometry relative="1" as="geometry">
            <mxPoint x="240" y="240" as="targetPoint" />
          </mxGeometry>
        </mxCell>
        <mxCell id="8WCsBVq4_sCp6lZoLzIq-8" value="通知" style="rounded=1;whiteSpace=wrap;html=1;shadow=0;labelBackgroundColor=none;strokeWidth=1;fontFamily=Verdana;fontSize=8;align=center;" parent="77e6c97f196da883-3" vertex="1">
          <mxGeometry x="30" y="350" width="100" height="40" as="geometry" />
        </mxCell>
        <mxCell id="77e6c97f196da883-4" value="事件广播器" style="swimlane;html=1;startSize=20;" parent="77e6c97f196da883-1" vertex="1">
          <mxGeometry x="320" y="20" width="700" height="730" as="geometry" />
        </mxCell>
        <mxCell id="4r0qmbkX0xzxaI8w7b-z-2" style="edgeStyle=orthogonalEdgeStyle;rounded=0;comic=0;sketch=0;jumpStyle=none;orthogonalLoop=1;jettySize=auto;html=1;shadow=0;endFill=1;strokeColor=default;" parent="77e6c97f196da883-4" source="77e6c97f196da883-15" target="4r0qmbkX0xzxaI8w7b-z-1" edge="1">
          <mxGeometry relative="1" as="geometry" />
        </mxCell>
        <mxCell id="77e6c97f196da883-15" value="接收通知" style="rounded=1;whiteSpace=wrap;html=1;shadow=0;labelBackgroundColor=none;strokeWidth=1;fontFamily=Verdana;fontSize=8;align=center;" parent="77e6c97f196da883-4" vertex="1">
          <mxGeometry x="30" y="350" width="90" height="40" as="geometry" />
        </mxCell>
        <mxCell id="4r0qmbkX0xzxaI8w7b-z-5" style="edgeStyle=orthogonalEdgeStyle;rounded=0;comic=0;sketch=0;jumpStyle=none;orthogonalLoop=1;jettySize=auto;html=1;exitX=0.5;exitY=1;exitDx=0;exitDy=0;entryX=0.5;entryY=0;entryDx=0;entryDy=0;shadow=0;endFill=1;strokeColor=default;" parent="77e6c97f196da883-4" source="4r0qmbkX0xzxaI8w7b-z-1" target="4r0qmbkX0xzxaI8w7b-z-3" edge="1">
          <mxGeometry relative="1" as="geometry" />
        </mxCell>
        <mxCell id="4r0qmbkX0xzxaI8w7b-z-1" value="主题" style="rounded=1;whiteSpace=wrap;html=1;shadow=0;labelBackgroundColor=none;strokeWidth=1;fontFamily=Verdana;fontSize=8;align=center;" parent="77e6c97f196da883-4" vertex="1">
          <mxGeometry x="30" y="420" width="90" height="40" as="geometry" />
        </mxCell>
        <mxCell id="4r0qmbkX0xzxaI8w7b-z-37" style="edgeStyle=orthogonalEdgeStyle;rounded=0;comic=0;sketch=0;jumpStyle=none;orthogonalLoop=1;jettySize=auto;html=1;exitX=0.5;exitY=1;exitDx=0;exitDy=0;shadow=0;fontSize=9;endFill=1;strokeColor=default;" parent="77e6c97f196da883-4" source="4r0qmbkX0xzxaI8w7b-z-3" target="4r0qmbkX0xzxaI8w7b-z-31" edge="1">
          <mxGeometry relative="1" as="geometry" />
        </mxCell>
        <mxCell id="4r0qmbkX0xzxaI8w7b-z-41" value="无" style="edgeLabel;html=1;align=center;verticalAlign=middle;resizable=0;points=[];fontSize=9;" parent="4r0qmbkX0xzxaI8w7b-z-37" vertex="1" connectable="0">
          <mxGeometry x="-0.8209" y="2" relative="1" as="geometry">
            <mxPoint as="offset" />
          </mxGeometry>
        </mxCell>
        <mxCell id="4r0qmbkX0xzxaI8w7b-z-3" value="&lt;font style=&quot;font-size: 9px&quot;&gt;是否有订阅者&lt;/font&gt;" style="rhombus;whiteSpace=wrap;html=1;rounded=0;shadow=0;glass=0;sketch=0;" parent="77e6c97f196da883-4" vertex="1">
          <mxGeometry x="35" y="490" width="80" height="70" as="geometry" />
        </mxCell>
        <mxCell id="4r0qmbkX0xzxaI8w7b-z-31" value="结束" style="ellipse;whiteSpace=wrap;html=1;rounded=0;shadow=0;glass=0;sketch=0;" parent="77e6c97f196da883-4" vertex="1">
          <mxGeometry x="90" y="640" width="105" height="60" as="geometry" />
        </mxCell>
        <mxCell id="4r0qmbkX0xzxaI8w7b-z-39" style="edgeStyle=orthogonalEdgeStyle;rounded=0;comic=0;sketch=0;jumpStyle=none;orthogonalLoop=1;jettySize=auto;html=1;exitX=0.5;exitY=1;exitDx=0;exitDy=0;entryX=0.5;entryY=0;entryDx=0;entryDy=0;shadow=0;fontSize=9;endFill=1;strokeColor=default;" parent="77e6c97f196da883-4" source="4r0qmbkX0xzxaI8w7b-z-33" target="4r0qmbkX0xzxaI8w7b-z-31" edge="1">
          <mxGeometry relative="1" as="geometry" />
        </mxCell>
        <mxCell id="4r0qmbkX0xzxaI8w7b-z-40" value="无" style="edgeLabel;html=1;align=center;verticalAlign=middle;resizable=0;points=[];fontSize=9;" parent="4r0qmbkX0xzxaI8w7b-z-39" vertex="1" connectable="0">
          <mxGeometry x="-0.845" y="-2" relative="1" as="geometry">
            <mxPoint as="offset" />
          </mxGeometry>
        </mxCell>
        <mxCell id="4r0qmbkX0xzxaI8w7b-z-45" value="是" style="edgeStyle=orthogonalEdgeStyle;rounded=0;comic=0;sketch=0;jumpStyle=none;orthogonalLoop=1;jettySize=auto;html=1;exitX=1;exitY=0.5;exitDx=0;exitDy=0;entryX=0;entryY=0.5;entryDx=0;entryDy=0;shadow=0;fontSize=9;endFill=1;strokeColor=default;" parent="77e6c97f196da883-4" source="4r0qmbkX0xzxaI8w7b-z-33" edge="1">
          <mxGeometry x="-0.2" relative="1" as="geometry">
            <mxPoint x="300" y="525" as="targetPoint" />
            <Array as="points">
              <mxPoint x="280" y="525" />
              <mxPoint x="280" y="525" />
            </Array>
            <mxPoint as="offset" />
          </mxGeometry>
        </mxCell>
        <mxCell id="4r0qmbkX0xzxaI8w7b-z-33" value="&lt;font size=&quot;1&quot;&gt;订阅者是否是push&lt;/font&gt;" style="rhombus;whiteSpace=wrap;html=1;rounded=0;shadow=0;glass=0;sketch=0;" parent="77e6c97f196da883-4" vertex="1">
          <mxGeometry x="170" y="490" width="80" height="70" as="geometry" />
        </mxCell>
        <mxCell id="4r0qmbkX0xzxaI8w7b-z-34" value="有" style="edgeStyle=orthogonalEdgeStyle;rounded=0;comic=0;sketch=0;jumpStyle=none;orthogonalLoop=1;jettySize=auto;html=1;shadow=0;fontSize=9;endFill=1;strokeColor=default;" parent="77e6c97f196da883-4" source="4r0qmbkX0xzxaI8w7b-z-3" target="4r0qmbkX0xzxaI8w7b-z-33" edge="1">
          <mxGeometry relative="1" as="geometry" />
        </mxCell>
        <mxCell id="4r0qmbkX0xzxaI8w7b-z-51" value="是" style="edgeStyle=orthogonalEdgeStyle;rounded=0;comic=0;sketch=0;jumpStyle=none;orthogonalLoop=1;jettySize=auto;html=1;exitX=1;exitY=0.5;exitDx=0;exitDy=0;entryX=0;entryY=0.5;entryDx=0;entryDy=0;shadow=0;fontSize=9;endFill=1;strokeColor=default;" parent="77e6c97f196da883-4" source="4r0qmbkX0xzxaI8w7b-z-47" target="4r0qmbkX0xzxaI8w7b-z-50" edge="1">
          <mxGeometry relative="1" as="geometry">
            <Array as="points">
              <mxPoint x="380" y="480" />
            </Array>
          </mxGeometry>
        </mxCell>
        <mxCell id="4r0qmbkX0xzxaI8w7b-z-47" value="&lt;font size=&quot;1&quot;&gt;根据push/pull是否需要加载其它数据&lt;/font&gt;" style="rhombus;whiteSpace=wrap;html=1;rounded=0;shadow=0;glass=0;sketch=0;" parent="77e6c97f196da883-4" vertex="1">
          <mxGeometry x="300" y="490" width="80" height="70" as="geometry" />
        </mxCell>
        <mxCell id="4r0qmbkX0xzxaI8w7b-z-54" style="edgeStyle=orthogonalEdgeStyle;rounded=0;comic=0;sketch=0;jumpStyle=none;orthogonalLoop=1;jettySize=auto;html=1;exitX=1;exitY=0.5;exitDx=0;exitDy=0;entryX=0;entryY=0.5;entryDx=0;entryDy=0;shadow=0;fontSize=9;endFill=1;strokeColor=default;" parent="77e6c97f196da883-4" source="4r0qmbkX0xzxaI8w7b-z-50" target="4r0qmbkX0xzxaI8w7b-z-53" edge="1">
          <mxGeometry relative="1" as="geometry">
            <Array as="points">
              <mxPoint x="530" y="480" />
              <mxPoint x="530" y="525" />
            </Array>
          </mxGeometry>
        </mxCell>
        <mxCell id="4r0qmbkX0xzxaI8w7b-z-50" value="加载数据" style="rounded=1;whiteSpace=wrap;html=1;shadow=0;labelBackgroundColor=none;strokeWidth=1;fontFamily=Verdana;fontSize=8;align=center;" parent="77e6c97f196da883-4" vertex="1">
          <mxGeometry x="420" y="460" width="90" height="40" as="geometry" />
        </mxCell>
        <mxCell id="4r0qmbkX0xzxaI8w7b-z-53" value="通知" style="rounded=1;whiteSpace=wrap;html=1;shadow=0;labelBackgroundColor=none;strokeWidth=1;fontFamily=Verdana;fontSize=8;align=center;" parent="77e6c97f196da883-4" vertex="1">
          <mxGeometry x="550" y="505" width="90" height="40" as="geometry" />
        </mxCell>
        <mxCell id="4r0qmbkX0xzxaI8w7b-z-55" style="edgeStyle=orthogonalEdgeStyle;rounded=0;comic=0;sketch=0;jumpStyle=none;orthogonalLoop=1;jettySize=auto;html=1;entryX=0;entryY=0.5;entryDx=0;entryDy=0;shadow=0;fontSize=9;endFill=1;strokeColor=default;" parent="77e6c97f196da883-4" edge="1">
          <mxGeometry relative="1" as="geometry">
            <mxPoint x="380" y="524.71" as="sourcePoint" />
            <mxPoint x="550" y="524.71" as="targetPoint" />
            <Array as="points">
              <mxPoint x="460" y="524.71" />
              <mxPoint x="460" y="524.71" />
            </Array>
          </mxGeometry>
        </mxCell>
        <mxCell id="4r0qmbkX0xzxaI8w7b-z-57" value="无" style="edgeLabel;html=1;align=center;verticalAlign=middle;resizable=0;points=[];fontSize=9;" parent="4r0qmbkX0xzxaI8w7b-z-55" vertex="1" connectable="0">
          <mxGeometry x="0.1412" y="2" relative="1" as="geometry">
            <mxPoint x="-12" y="2" as="offset" />
          </mxGeometry>
        </mxCell>
        <mxCell id="77e6c97f196da883-5" value="订阅者" style="swimlane;html=1;startSize=20;" parent="77e6c97f196da883-1" vertex="1">
          <mxGeometry x="1020" y="20" width="160" height="730" as="geometry" />
        </mxCell>
        <mxCell id="4r0qmbkX0xzxaI8w7b-z-58" value="web" style="rounded=1;whiteSpace=wrap;html=1;shadow=0;labelBackgroundColor=none;strokeWidth=1;fontFamily=Verdana;fontSize=8;align=center;" parent="77e6c97f196da883-5" vertex="1">
          <mxGeometry x="35" y="470" width="90" height="40" as="geometry" />
        </mxCell>
        <mxCell id="4r0qmbkX0xzxaI8w7b-z-59" value="第三方" style="rounded=1;whiteSpace=wrap;html=1;shadow=0;labelBackgroundColor=none;strokeWidth=1;fontFamily=Verdana;fontSize=8;align=center;" parent="77e6c97f196da883-5" vertex="1">
          <mxGeometry x="35" y="540" width="90" height="40" as="geometry" />
        </mxCell>
        <mxCell id="8WCsBVq4_sCp6lZoLzIq-10" style="edgeStyle=orthogonalEdgeStyle;rounded=0;comic=0;sketch=0;jumpStyle=none;orthogonalLoop=1;jettySize=auto;html=1;exitX=1;exitY=0.5;exitDx=0;exitDy=0;entryX=0;entryY=0.5;entryDx=0;entryDy=0;shadow=0;endFill=1;strokeColor=default;" parent="77e6c97f196da883-1" source="8WCsBVq4_sCp6lZoLzIq-8" target="77e6c97f196da883-15" edge="1">
          <mxGeometry relative="1" as="geometry" />
        </mxCell>
        <mxCell id="4r0qmbkX0xzxaI8w7b-z-61" style="edgeStyle=orthogonalEdgeStyle;rounded=0;comic=0;sketch=0;jumpStyle=none;orthogonalLoop=1;jettySize=auto;html=1;exitX=1;exitY=0.5;exitDx=0;exitDy=0;shadow=0;fontSize=9;endFill=1;strokeColor=default;" parent="77e6c97f196da883-1" source="4r0qmbkX0xzxaI8w7b-z-53" target="4r0qmbkX0xzxaI8w7b-z-58" edge="1">
          <mxGeometry relative="1" as="geometry" />
        </mxCell>
        <mxCell id="4r0qmbkX0xzxaI8w7b-z-62" style="edgeStyle=orthogonalEdgeStyle;rounded=0;comic=0;sketch=0;jumpStyle=none;orthogonalLoop=1;jettySize=auto;html=1;shadow=0;fontSize=9;endFill=1;strokeColor=default;" parent="77e6c97f196da883-1" source="4r0qmbkX0xzxaI8w7b-z-53" edge="1">
          <mxGeometry relative="1" as="geometry">
            <mxPoint x="1055" y="580" as="targetPoint" />
            <Array as="points">
              <mxPoint x="1008" y="545" />
              <mxPoint x="1008" y="580" />
              <mxPoint x="1055" y="580" />
            </Array>
          </mxGeometry>
        </mxCell>
      </root>
    </mxGraphModel>
  </diagram>
  <diagram id="b4iiF9LHrF1yB3clqax-" name="事件架构图">
    <mxGraphModel dx="1902" dy="1050" grid="1" gridSize="10" guides="1" tooltips="1" connect="1" arrows="1" fold="1" page="1" pageScale="1" pageWidth="827" pageHeight="1169" math="0" shadow="0">
      <root>
        <mxCell id="Z_moVL6y3I9Pr-T9jaPE-0" />
        <mxCell id="Z_moVL6y3I9Pr-T9jaPE-1" parent="Z_moVL6y3I9Pr-T9jaPE-0" />
        <mxCell id="Z_moVL6y3I9Pr-T9jaPE-36" value="" style="edgeStyle=orthogonalEdgeStyle;shape=flexArrow;rounded=0;orthogonalLoop=1;jettySize=auto;html=1;" parent="Z_moVL6y3I9Pr-T9jaPE-1" source="Z_moVL6y3I9Pr-T9jaPE-30" target="Z_moVL6y3I9Pr-T9jaPE-35" edge="1">
          <mxGeometry relative="1" as="geometry">
            <Array as="points">
              <mxPoint x="100" y="180" />
              <mxPoint x="100" y="180" />
            </Array>
          </mxGeometry>
        </mxCell>
        <mxCell id="Z_moVL6y3I9Pr-T9jaPE-45" value="push" style="edgeLabel;html=1;align=center;verticalAlign=middle;resizable=0;points=[];" parent="Z_moVL6y3I9Pr-T9jaPE-36" vertex="1" connectable="0">
          <mxGeometry x="-0.24" y="-1" relative="1" as="geometry">
            <mxPoint as="offset" />
          </mxGeometry>
        </mxCell>
        <mxCell id="Z_moVL6y3I9Pr-T9jaPE-30" value="内部其它系统/第三方" style="rounded=0;whiteSpace=wrap;html=1;" parent="Z_moVL6y3I9Pr-T9jaPE-1" vertex="1">
          <mxGeometry x="50" y="110" width="220" height="40" as="geometry" />
        </mxCell>
        <mxCell id="Z_moVL6y3I9Pr-T9jaPE-35" value="事件存储器" style="whiteSpace=wrap;html=1;rounded=0;verticalAlign=top;labelPosition=center;verticalLabelPosition=bottom;align=center;" parent="Z_moVL6y3I9Pr-T9jaPE-1" vertex="1">
          <mxGeometry x="50" y="200" width="220" height="220" as="geometry" />
        </mxCell>
        <mxCell id="Z_moVL6y3I9Pr-T9jaPE-42" value="" style="edgeStyle=orthogonalEdgeStyle;shape=flexArrow;rounded=0;orthogonalLoop=1;jettySize=auto;html=1;" parent="Z_moVL6y3I9Pr-T9jaPE-1" source="Z_moVL6y3I9Pr-T9jaPE-30" target="Z_moVL6y3I9Pr-T9jaPE-35" edge="1">
          <mxGeometry relative="1" as="geometry">
            <mxPoint x="100.02857142857147" y="150" as="sourcePoint" />
            <mxPoint x="100.02857142857147" y="200" as="targetPoint" />
            <Array as="points">
              <mxPoint x="210" y="180" />
              <mxPoint x="210" y="180" />
            </Array>
          </mxGeometry>
        </mxCell>
        <mxCell id="Z_moVL6y3I9Pr-T9jaPE-44" value="pull&lt;br&gt;" style="edgeLabel;html=1;align=center;verticalAlign=middle;resizable=0;points=[];" parent="Z_moVL6y3I9Pr-T9jaPE-42" vertex="1" connectable="0">
          <mxGeometry x="-0.2857" relative="1" as="geometry">
            <mxPoint as="offset" />
          </mxGeometry>
        </mxCell>
        <mxCell id="Z_moVL6y3I9Pr-T9jaPE-55" style="edgeStyle=orthogonalEdgeStyle;rounded=0;orthogonalLoop=1;jettySize=auto;html=1;" parent="Z_moVL6y3I9Pr-T9jaPE-1" source="Z_moVL6y3I9Pr-T9jaPE-46" target="Z_moVL6y3I9Pr-T9jaPE-52" edge="1">
          <mxGeometry relative="1" as="geometry" />
        </mxCell>
        <mxCell id="Z_moVL6y3I9Pr-T9jaPE-46" value="数据处理" style="rounded=0;whiteSpace=wrap;html=1;" parent="Z_moVL6y3I9Pr-T9jaPE-1" vertex="1">
          <mxGeometry x="125" y="210" width="70" height="40" as="geometry" />
        </mxCell>
        <mxCell id="Z_moVL6y3I9Pr-T9jaPE-56" style="edgeStyle=orthogonalEdgeStyle;rounded=0;orthogonalLoop=1;jettySize=auto;html=1;exitX=0.5;exitY=1;exitDx=0;exitDy=0;entryX=0.5;entryY=0;entryDx=0;entryDy=0;" parent="Z_moVL6y3I9Pr-T9jaPE-1" source="Z_moVL6y3I9Pr-T9jaPE-52" target="Z_moVL6y3I9Pr-T9jaPE-54" edge="1">
          <mxGeometry relative="1" as="geometry" />
        </mxCell>
        <mxCell id="Z_moVL6y3I9Pr-T9jaPE-52" value="存储DB" style="rounded=0;whiteSpace=wrap;html=1;" parent="Z_moVL6y3I9Pr-T9jaPE-1" vertex="1">
          <mxGeometry x="125" y="280" width="70" height="40" as="geometry" />
        </mxCell>
        <mxCell id="Z_moVL6y3I9Pr-T9jaPE-71" style="edgeStyle=orthogonalEdgeStyle;shape=flexArrow;rounded=0;comic=0;sketch=0;jumpStyle=none;orthogonalLoop=1;jettySize=auto;html=1;exitX=1;exitY=0.5;exitDx=0;exitDy=0;entryX=0.5;entryY=0;entryDx=0;entryDy=0;shadow=0;endFill=1;strokeColor=default;" parent="Z_moVL6y3I9Pr-T9jaPE-1" source="Z_moVL6y3I9Pr-T9jaPE-54" target="Z_moVL6y3I9Pr-T9jaPE-57" edge="1">
          <mxGeometry relative="1" as="geometry" />
        </mxCell>
        <mxCell id="Z_moVL6y3I9Pr-T9jaPE-72" value="通知" style="edgeLabel;html=1;align=center;verticalAlign=middle;resizable=0;points=[];" parent="Z_moVL6y3I9Pr-T9jaPE-71" vertex="1" connectable="0">
          <mxGeometry x="0.3172" y="1" relative="1" as="geometry">
            <mxPoint as="offset" />
          </mxGeometry>
        </mxCell>
        <mxCell id="Z_moVL6y3I9Pr-T9jaPE-54" value="通知主题" style="rounded=0;whiteSpace=wrap;html=1;" parent="Z_moVL6y3I9Pr-T9jaPE-1" vertex="1">
          <mxGeometry x="125" y="350" width="70" height="40" as="geometry" />
        </mxCell>
        <mxCell id="Z_moVL6y3I9Pr-T9jaPE-67" style="edgeStyle=orthogonalEdgeStyle;rounded=0;sketch=0;jumpStyle=none;orthogonalLoop=1;jettySize=auto;html=1;exitX=0.5;exitY=0;exitDx=0;exitDy=0;entryX=0.5;entryY=0;entryDx=0;entryDy=0;shadow=0;" parent="Z_moVL6y3I9Pr-T9jaPE-1" source="Z_moVL6y3I9Pr-T9jaPE-57" target="Z_moVL6y3I9Pr-T9jaPE-58" edge="1">
          <mxGeometry relative="1" as="geometry" />
        </mxCell>
        <mxCell id="Z_moVL6y3I9Pr-T9jaPE-68" style="edgeStyle=orthogonalEdgeStyle;rounded=0;sketch=0;jumpStyle=none;orthogonalLoop=1;jettySize=auto;html=1;exitX=0.5;exitY=0;exitDx=0;exitDy=0;entryX=0.5;entryY=0;entryDx=0;entryDy=0;shadow=0;" parent="Z_moVL6y3I9Pr-T9jaPE-1" source="Z_moVL6y3I9Pr-T9jaPE-57" target="Z_moVL6y3I9Pr-T9jaPE-58" edge="1">
          <mxGeometry relative="1" as="geometry" />
        </mxCell>
        <mxCell id="Z_moVL6y3I9Pr-T9jaPE-79" style="edgeStyle=orthogonalEdgeStyle;rounded=0;comic=0;sketch=0;jumpStyle=none;orthogonalLoop=1;jettySize=auto;html=1;exitX=0.25;exitY=1;exitDx=0;exitDy=0;entryX=0.5;entryY=0;entryDx=0;entryDy=0;shadow=0;endFill=1;strokeColor=default;" parent="Z_moVL6y3I9Pr-T9jaPE-1" source="Z_moVL6y3I9Pr-T9jaPE-57" target="Z_moVL6y3I9Pr-T9jaPE-76" edge="1">
          <mxGeometry relative="1" as="geometry">
            <Array as="points">
              <mxPoint x="345" y="650" />
            </Array>
          </mxGeometry>
        </mxCell>
        <mxCell id="Z_moVL6y3I9Pr-T9jaPE-80" style="edgeStyle=orthogonalEdgeStyle;rounded=0;comic=0;sketch=0;jumpStyle=none;orthogonalLoop=1;jettySize=auto;html=1;entryX=0.5;entryY=0;entryDx=0;entryDy=0;shadow=0;endFill=1;strokeColor=default;" parent="Z_moVL6y3I9Pr-T9jaPE-1" source="Z_moVL6y3I9Pr-T9jaPE-57" target="Z_moVL6y3I9Pr-T9jaPE-77" edge="1">
          <mxGeometry relative="1" as="geometry" />
        </mxCell>
        <mxCell id="Z_moVL6y3I9Pr-T9jaPE-81" style="edgeStyle=orthogonalEdgeStyle;rounded=0;comic=0;sketch=0;jumpStyle=none;orthogonalLoop=1;jettySize=auto;html=1;exitX=0.75;exitY=1;exitDx=0;exitDy=0;shadow=0;endFill=1;strokeColor=default;" parent="Z_moVL6y3I9Pr-T9jaPE-1" source="Z_moVL6y3I9Pr-T9jaPE-57" target="Z_moVL6y3I9Pr-T9jaPE-78" edge="1">
          <mxGeometry relative="1" as="geometry">
            <Array as="points">
              <mxPoint x="535" y="650" />
            </Array>
          </mxGeometry>
        </mxCell>
        <mxCell id="Z_moVL6y3I9Pr-T9jaPE-57" value="事件广播器" style="rounded=0;whiteSpace=wrap;html=1;verticalAlign=middle;labelPosition=right;verticalLabelPosition=middle;align=left;" parent="Z_moVL6y3I9Pr-T9jaPE-1" vertex="1">
          <mxGeometry x="320" y="420" width="240" height="230" as="geometry" />
        </mxCell>
        <mxCell id="Z_moVL6y3I9Pr-T9jaPE-73" style="edgeStyle=orthogonalEdgeStyle;rounded=0;comic=0;sketch=0;jumpStyle=none;orthogonalLoop=1;jettySize=auto;html=1;entryX=0.5;entryY=0;entryDx=0;entryDy=0;shadow=0;endFill=1;strokeColor=default;" parent="Z_moVL6y3I9Pr-T9jaPE-1" source="Z_moVL6y3I9Pr-T9jaPE-58" target="Z_moVL6y3I9Pr-T9jaPE-63" edge="1">
          <mxGeometry relative="1" as="geometry" />
        </mxCell>
        <mxCell id="Z_moVL6y3I9Pr-T9jaPE-58" value="主题" style="rounded=0;whiteSpace=wrap;html=1;" parent="Z_moVL6y3I9Pr-T9jaPE-1" vertex="1">
          <mxGeometry x="405" y="440" width="70" height="40" as="geometry" />
        </mxCell>
        <mxCell id="Z_moVL6y3I9Pr-T9jaPE-74" style="edgeStyle=orthogonalEdgeStyle;rounded=0;comic=0;sketch=0;jumpStyle=none;orthogonalLoop=1;jettySize=auto;html=1;exitX=0.5;exitY=1;exitDx=0;exitDy=0;shadow=0;endFill=1;strokeColor=default;" parent="Z_moVL6y3I9Pr-T9jaPE-1" source="Z_moVL6y3I9Pr-T9jaPE-63" target="Z_moVL6y3I9Pr-T9jaPE-64" edge="1">
          <mxGeometry relative="1" as="geometry" />
        </mxCell>
        <mxCell id="Z_moVL6y3I9Pr-T9jaPE-63" value="加载" style="rounded=0;whiteSpace=wrap;html=1;" parent="Z_moVL6y3I9Pr-T9jaPE-1" vertex="1">
          <mxGeometry x="405" y="510" width="70" height="40" as="geometry" />
        </mxCell>
        <mxCell id="Z_moVL6y3I9Pr-T9jaPE-64" value="传播" style="rounded=0;whiteSpace=wrap;html=1;" parent="Z_moVL6y3I9Pr-T9jaPE-1" vertex="1">
          <mxGeometry x="405" y="580" width="70" height="40" as="geometry" />
        </mxCell>
        <mxCell id="Z_moVL6y3I9Pr-T9jaPE-76" value="web" style="ellipse;whiteSpace=wrap;html=1;aspect=fixed;" parent="Z_moVL6y3I9Pr-T9jaPE-1" vertex="1">
          <mxGeometry x="320" y="680" width="50" height="50" as="geometry" />
        </mxCell>
        <mxCell id="Z_moVL6y3I9Pr-T9jaPE-77" value="pda" style="ellipse;whiteSpace=wrap;html=1;aspect=fixed;" parent="Z_moVL6y3I9Pr-T9jaPE-1" vertex="1">
          <mxGeometry x="415" y="680" width="50" height="50" as="geometry" />
        </mxCell>
        <mxCell id="Z_moVL6y3I9Pr-T9jaPE-78" value="其它" style="ellipse;whiteSpace=wrap;html=1;aspect=fixed;" parent="Z_moVL6y3I9Pr-T9jaPE-1" vertex="1">
          <mxGeometry x="510" y="680" width="50" height="50" as="geometry" />
        </mxCell>
      </root>
    </mxGraphModel>
  </diagram>
  <diagram id="vram4CsTyLXXsM0XMK-9" name="数据库">
    <mxGraphModel dx="1914" dy="600" grid="1" gridSize="10" guides="1" tooltips="1" connect="1" arrows="1" fold="1" page="1" pageScale="1" pageWidth="827" pageHeight="1169" math="0" shadow="0">
      <root>
        <mxCell id="AuQBV974TfrHUwsecErT-0" />
        <mxCell id="AuQBV974TfrHUwsecErT-1" parent="AuQBV974TfrHUwsecErT-0" />
        <mxCell id="AuQBV974TfrHUwsecErT-6" value="存储器" style="shape=table;startSize=30;container=1;collapsible=1;childLayout=tableLayout;fixedRows=1;rowLines=0;fontStyle=1;align=center;resizeLast=1;rounded=0;shadow=0;glass=0;sketch=0;fontSize=9;" parent="AuQBV974TfrHUwsecErT-1" vertex="1">
          <mxGeometry x="60" y="60" width="180" height="180" as="geometry" />
        </mxCell>
        <mxCell id="AuQBV974TfrHUwsecErT-7" value="" style="shape=partialRectangle;collapsible=0;dropTarget=0;pointerEvents=0;fillColor=none;top=0;left=0;bottom=1;right=0;points=[[0,0.5],[1,0.5]];portConstraint=eastwest;rounded=0;shadow=0;glass=0;sketch=0;fontSize=9;" parent="AuQBV974TfrHUwsecErT-6" vertex="1">
          <mxGeometry y="30" width="180" height="30" as="geometry" />
        </mxCell>
        <mxCell id="AuQBV974TfrHUwsecErT-8" value="PK" style="shape=partialRectangle;connectable=0;fillColor=none;top=0;left=0;bottom=0;right=0;fontStyle=1;overflow=hidden;rounded=0;shadow=0;glass=0;sketch=0;fontSize=9;" parent="AuQBV974TfrHUwsecErT-7" vertex="1">
          <mxGeometry width="30" height="30" as="geometry">
            <mxRectangle width="30" height="30" as="alternateBounds" />
          </mxGeometry>
        </mxCell>
        <mxCell id="AuQBV974TfrHUwsecErT-9" value="id" style="shape=partialRectangle;connectable=0;fillColor=none;top=0;left=0;bottom=0;right=0;align=left;spacingLeft=6;fontStyle=5;overflow=hidden;rounded=0;shadow=0;glass=0;sketch=0;fontSize=9;" parent="AuQBV974TfrHUwsecErT-7" vertex="1">
          <mxGeometry x="30" width="150" height="30" as="geometry">
            <mxRectangle width="150" height="30" as="alternateBounds" />
          </mxGeometry>
        </mxCell>
        <mxCell id="Pe53c87VrXziWp1Mg22o-0" value="" style="shape=partialRectangle;collapsible=0;dropTarget=0;pointerEvents=0;fillColor=none;top=0;left=0;bottom=0;right=0;points=[[0,0.5],[1,0.5]];portConstraint=eastwest;rounded=0;shadow=0;glass=0;sketch=0;fontSize=9;" vertex="1" parent="AuQBV974TfrHUwsecErT-6">
          <mxGeometry y="60" width="180" height="30" as="geometry" />
        </mxCell>
        <mxCell id="Pe53c87VrXziWp1Mg22o-1" value="" style="shape=partialRectangle;connectable=0;fillColor=none;top=0;left=0;bottom=0;right=0;editable=1;overflow=hidden;rounded=0;shadow=0;glass=0;sketch=0;fontSize=9;" vertex="1" parent="Pe53c87VrXziWp1Mg22o-0">
          <mxGeometry width="30" height="30" as="geometry">
            <mxRectangle width="30" height="30" as="alternateBounds" />
          </mxGeometry>
        </mxCell>
        <mxCell id="Pe53c87VrXziWp1Mg22o-2" value="名称" style="shape=partialRectangle;connectable=0;fillColor=none;top=0;left=0;bottom=0;right=0;align=left;spacingLeft=6;overflow=hidden;rounded=0;shadow=0;glass=0;sketch=0;fontSize=9;" vertex="1" parent="Pe53c87VrXziWp1Mg22o-0">
          <mxGeometry x="30" width="150" height="30" as="geometry">
            <mxRectangle width="150" height="30" as="alternateBounds" />
          </mxGeometry>
        </mxCell>
        <mxCell id="AuQBV974TfrHUwsecErT-13" value="" style="shape=partialRectangle;collapsible=0;dropTarget=0;pointerEvents=0;fillColor=none;top=0;left=0;bottom=0;right=0;points=[[0,0.5],[1,0.5]];portConstraint=eastwest;rounded=0;shadow=0;glass=0;sketch=0;fontSize=9;" parent="AuQBV974TfrHUwsecErT-6" vertex="1">
          <mxGeometry y="90" width="180" height="30" as="geometry" />
        </mxCell>
        <mxCell id="AuQBV974TfrHUwsecErT-14" value="" style="shape=partialRectangle;connectable=0;fillColor=none;top=0;left=0;bottom=0;right=0;editable=1;overflow=hidden;rounded=0;shadow=0;glass=0;sketch=0;fontSize=9;" parent="AuQBV974TfrHUwsecErT-13" vertex="1">
          <mxGeometry width="30" height="30" as="geometry">
            <mxRectangle width="30" height="30" as="alternateBounds" />
          </mxGeometry>
        </mxCell>
        <mxCell id="AuQBV974TfrHUwsecErT-15" value="映射对象key" style="shape=partialRectangle;connectable=0;fillColor=none;top=0;left=0;bottom=0;right=0;align=left;spacingLeft=6;overflow=hidden;rounded=0;shadow=0;glass=0;sketch=0;fontSize=9;" parent="AuQBV974TfrHUwsecErT-13" vertex="1">
          <mxGeometry x="30" width="150" height="30" as="geometry">
            <mxRectangle width="150" height="30" as="alternateBounds" />
          </mxGeometry>
        </mxCell>
        <mxCell id="AuQBV974TfrHUwsecErT-16" value="" style="shape=partialRectangle;collapsible=0;dropTarget=0;pointerEvents=0;fillColor=none;top=0;left=0;bottom=0;right=0;points=[[0,0.5],[1,0.5]];portConstraint=eastwest;rounded=0;shadow=0;glass=0;sketch=0;fontSize=9;" parent="AuQBV974TfrHUwsecErT-6" vertex="1">
          <mxGeometry y="120" width="180" height="30" as="geometry" />
        </mxCell>
        <mxCell id="AuQBV974TfrHUwsecErT-17" value="" style="shape=partialRectangle;connectable=0;fillColor=none;top=0;left=0;bottom=0;right=0;editable=1;overflow=hidden;rounded=0;shadow=0;glass=0;sketch=0;fontSize=9;" parent="AuQBV974TfrHUwsecErT-16" vertex="1">
          <mxGeometry width="30" height="30" as="geometry">
            <mxRectangle width="30" height="30" as="alternateBounds" />
          </mxGeometry>
        </mxCell>
        <mxCell id="AuQBV974TfrHUwsecErT-18" value="内容(json格式)" style="shape=partialRectangle;connectable=0;fillColor=none;top=0;left=0;bottom=0;right=0;align=left;spacingLeft=6;overflow=hidden;rounded=0;shadow=0;glass=0;sketch=0;fontSize=9;" parent="AuQBV974TfrHUwsecErT-16" vertex="1">
          <mxGeometry x="30" width="150" height="30" as="geometry">
            <mxRectangle width="150" height="30" as="alternateBounds" />
          </mxGeometry>
        </mxCell>
        <mxCell id="AuQBV974TfrHUwsecErT-89" value="" style="shape=partialRectangle;collapsible=0;dropTarget=0;pointerEvents=0;fillColor=none;top=0;left=0;bottom=0;right=0;points=[[0,0.5],[1,0.5]];portConstraint=eastwest;rounded=0;shadow=0;glass=0;sketch=0;fontSize=9;" parent="AuQBV974TfrHUwsecErT-6" vertex="1">
          <mxGeometry y="150" width="180" height="30" as="geometry" />
        </mxCell>
        <mxCell id="AuQBV974TfrHUwsecErT-90" value="" style="shape=partialRectangle;connectable=0;fillColor=none;top=0;left=0;bottom=0;right=0;editable=1;overflow=hidden;rounded=0;shadow=0;glass=0;sketch=0;fontSize=9;" parent="AuQBV974TfrHUwsecErT-89" vertex="1">
          <mxGeometry width="30" height="30" as="geometry">
            <mxRectangle width="30" height="30" as="alternateBounds" />
          </mxGeometry>
        </mxCell>
        <mxCell id="AuQBV974TfrHUwsecErT-91" value="来源" style="shape=partialRectangle;connectable=0;fillColor=none;top=0;left=0;bottom=0;right=0;align=left;spacingLeft=6;overflow=hidden;rounded=0;shadow=0;glass=0;sketch=0;fontSize=9;" parent="AuQBV974TfrHUwsecErT-89" vertex="1">
          <mxGeometry x="30" width="150" height="30" as="geometry">
            <mxRectangle width="150" height="30" as="alternateBounds" />
          </mxGeometry>
        </mxCell>
        <mxCell id="AuQBV974TfrHUwsecErT-38" value="主题" style="shape=table;startSize=30;container=1;collapsible=1;childLayout=tableLayout;fixedRows=1;rowLines=0;fontStyle=1;align=center;resizeLast=1;rounded=0;shadow=0;glass=0;sketch=0;fontSize=9;" parent="AuQBV974TfrHUwsecErT-1" vertex="1">
          <mxGeometry x="324" y="250" width="180" height="160" as="geometry" />
        </mxCell>
        <mxCell id="AuQBV974TfrHUwsecErT-39" value="" style="shape=partialRectangle;collapsible=0;dropTarget=0;pointerEvents=0;fillColor=none;top=0;left=0;bottom=1;right=0;points=[[0,0.5],[1,0.5]];portConstraint=eastwest;rounded=0;shadow=0;glass=0;sketch=0;fontSize=9;" parent="AuQBV974TfrHUwsecErT-38" vertex="1">
          <mxGeometry y="30" width="180" height="30" as="geometry" />
        </mxCell>
        <mxCell id="AuQBV974TfrHUwsecErT-40" value="PK" style="shape=partialRectangle;connectable=0;fillColor=none;top=0;left=0;bottom=0;right=0;fontStyle=1;overflow=hidden;rounded=0;shadow=0;glass=0;sketch=0;fontSize=9;" parent="AuQBV974TfrHUwsecErT-39" vertex="1">
          <mxGeometry width="30" height="30" as="geometry">
            <mxRectangle width="30" height="30" as="alternateBounds" />
          </mxGeometry>
        </mxCell>
        <mxCell id="AuQBV974TfrHUwsecErT-41" value="id" style="shape=partialRectangle;connectable=0;fillColor=none;top=0;left=0;bottom=0;right=0;align=left;spacingLeft=6;fontStyle=5;overflow=hidden;rounded=0;shadow=0;glass=0;sketch=0;fontSize=9;" parent="AuQBV974TfrHUwsecErT-39" vertex="1">
          <mxGeometry x="30" width="150" height="30" as="geometry">
            <mxRectangle width="150" height="30" as="alternateBounds" />
          </mxGeometry>
        </mxCell>
        <mxCell id="Pe53c87VrXziWp1Mg22o-13" value="" style="shape=partialRectangle;collapsible=0;dropTarget=0;pointerEvents=0;fillColor=none;top=0;left=0;bottom=0;right=0;points=[[0,0.5],[1,0.5]];portConstraint=eastwest;rounded=0;shadow=0;glass=0;sketch=0;fontSize=9;" vertex="1" parent="AuQBV974TfrHUwsecErT-38">
          <mxGeometry y="60" width="180" height="30" as="geometry" />
        </mxCell>
        <mxCell id="Pe53c87VrXziWp1Mg22o-14" value="" style="shape=partialRectangle;connectable=0;fillColor=none;top=0;left=0;bottom=0;right=0;editable=1;overflow=hidden;rounded=0;shadow=0;glass=0;sketch=0;fontSize=9;" vertex="1" parent="Pe53c87VrXziWp1Mg22o-13">
          <mxGeometry width="30" height="30" as="geometry">
            <mxRectangle width="30" height="30" as="alternateBounds" />
          </mxGeometry>
        </mxCell>
        <mxCell id="Pe53c87VrXziWp1Mg22o-15" value="名称" style="shape=partialRectangle;connectable=0;fillColor=none;top=0;left=0;bottom=0;right=0;align=left;spacingLeft=6;overflow=hidden;rounded=0;shadow=0;glass=0;sketch=0;fontSize=9;" vertex="1" parent="Pe53c87VrXziWp1Mg22o-13">
          <mxGeometry x="30" width="150" height="30" as="geometry">
            <mxRectangle width="150" height="30" as="alternateBounds" />
          </mxGeometry>
        </mxCell>
        <mxCell id="AuQBV974TfrHUwsecErT-42" value="" style="shape=partialRectangle;collapsible=0;dropTarget=0;pointerEvents=0;fillColor=none;top=0;left=0;bottom=0;right=0;points=[[0,0.5],[1,0.5]];portConstraint=eastwest;rounded=0;shadow=0;glass=0;sketch=0;fontSize=9;" parent="AuQBV974TfrHUwsecErT-38" vertex="1">
          <mxGeometry y="90" width="180" height="30" as="geometry" />
        </mxCell>
        <mxCell id="AuQBV974TfrHUwsecErT-43" value="" style="shape=partialRectangle;connectable=0;fillColor=none;top=0;left=0;bottom=0;right=0;editable=1;overflow=hidden;rounded=0;shadow=0;glass=0;sketch=0;fontSize=9;" parent="AuQBV974TfrHUwsecErT-42" vertex="1">
          <mxGeometry width="30" height="30" as="geometry">
            <mxRectangle width="30" height="30" as="alternateBounds" />
          </mxGeometry>
        </mxCell>
        <mxCell id="AuQBV974TfrHUwsecErT-44" value="名称" style="shape=partialRectangle;connectable=0;fillColor=none;top=0;left=0;bottom=0;right=0;align=left;spacingLeft=6;overflow=hidden;rounded=0;shadow=0;glass=0;sketch=0;fontSize=9;" parent="AuQBV974TfrHUwsecErT-42" vertex="1">
          <mxGeometry x="30" width="150" height="30" as="geometry">
            <mxRectangle width="150" height="30" as="alternateBounds" />
          </mxGeometry>
        </mxCell>
        <mxCell id="AuQBV974TfrHUwsecErT-45" value="" style="shape=partialRectangle;collapsible=0;dropTarget=0;pointerEvents=0;fillColor=none;top=0;left=0;bottom=0;right=0;points=[[0,0.5],[1,0.5]];portConstraint=eastwest;rounded=0;shadow=0;glass=0;sketch=0;fontSize=9;" parent="AuQBV974TfrHUwsecErT-38" vertex="1">
          <mxGeometry y="120" width="180" height="30" as="geometry" />
        </mxCell>
        <mxCell id="AuQBV974TfrHUwsecErT-46" value="" style="shape=partialRectangle;connectable=0;fillColor=none;top=0;left=0;bottom=0;right=0;editable=1;overflow=hidden;rounded=0;shadow=0;glass=0;sketch=0;fontSize=9;" parent="AuQBV974TfrHUwsecErT-45" vertex="1">
          <mxGeometry width="30" height="30" as="geometry">
            <mxRectangle width="30" height="30" as="alternateBounds" />
          </mxGeometry>
        </mxCell>
        <mxCell id="AuQBV974TfrHUwsecErT-47" value="描述" style="shape=partialRectangle;connectable=0;fillColor=none;top=0;left=0;bottom=0;right=0;align=left;spacingLeft=6;overflow=hidden;rounded=0;shadow=0;glass=0;sketch=0;fontSize=9;" parent="AuQBV974TfrHUwsecErT-45" vertex="1">
          <mxGeometry x="30" width="150" height="30" as="geometry">
            <mxRectangle width="150" height="30" as="alternateBounds" />
          </mxGeometry>
        </mxCell>
        <mxCell id="AuQBV974TfrHUwsecErT-51" value="主题-存储器关系" style="shape=table;startSize=30;container=1;collapsible=1;childLayout=tableLayout;fixedRows=1;rowLines=0;fontStyle=1;align=center;resizeLast=1;rounded=0;shadow=0;glass=0;sketch=0;fontSize=9;" parent="AuQBV974TfrHUwsecErT-1" vertex="1">
          <mxGeometry x="560" y="60" width="180" height="130" as="geometry" />
        </mxCell>
        <mxCell id="AuQBV974TfrHUwsecErT-52" value="" style="shape=partialRectangle;collapsible=0;dropTarget=0;pointerEvents=0;fillColor=none;top=0;left=0;bottom=1;right=0;points=[[0,0.5],[1,0.5]];portConstraint=eastwest;rounded=0;shadow=0;glass=0;sketch=0;fontSize=9;" parent="AuQBV974TfrHUwsecErT-51" vertex="1">
          <mxGeometry y="30" width="180" height="30" as="geometry" />
        </mxCell>
        <mxCell id="AuQBV974TfrHUwsecErT-53" value="PK" style="shape=partialRectangle;connectable=0;fillColor=none;top=0;left=0;bottom=0;right=0;fontStyle=1;overflow=hidden;rounded=0;shadow=0;glass=0;sketch=0;fontSize=9;" parent="AuQBV974TfrHUwsecErT-52" vertex="1">
          <mxGeometry width="30" height="30" as="geometry">
            <mxRectangle width="30" height="30" as="alternateBounds" />
          </mxGeometry>
        </mxCell>
        <mxCell id="AuQBV974TfrHUwsecErT-54" value="id" style="shape=partialRectangle;connectable=0;fillColor=none;top=0;left=0;bottom=0;right=0;align=left;spacingLeft=6;fontStyle=5;overflow=hidden;rounded=0;shadow=0;glass=0;sketch=0;fontSize=9;" parent="AuQBV974TfrHUwsecErT-52" vertex="1">
          <mxGeometry x="30" width="150" height="30" as="geometry">
            <mxRectangle width="150" height="30" as="alternateBounds" />
          </mxGeometry>
        </mxCell>
        <mxCell id="AuQBV974TfrHUwsecErT-55" value="" style="shape=partialRectangle;collapsible=0;dropTarget=0;pointerEvents=0;fillColor=none;top=0;left=0;bottom=0;right=0;points=[[0,0.5],[1,0.5]];portConstraint=eastwest;rounded=0;shadow=0;glass=0;sketch=0;fontSize=9;" parent="AuQBV974TfrHUwsecErT-51" vertex="1">
          <mxGeometry y="60" width="180" height="30" as="geometry" />
        </mxCell>
        <mxCell id="AuQBV974TfrHUwsecErT-56" value="" style="shape=partialRectangle;connectable=0;fillColor=none;top=0;left=0;bottom=0;right=0;editable=1;overflow=hidden;rounded=0;shadow=0;glass=0;sketch=0;fontSize=9;" parent="AuQBV974TfrHUwsecErT-55" vertex="1">
          <mxGeometry width="30" height="30" as="geometry">
            <mxRectangle width="30" height="30" as="alternateBounds" />
          </mxGeometry>
        </mxCell>
        <mxCell id="AuQBV974TfrHUwsecErT-57" value="主题id" style="shape=partialRectangle;connectable=0;fillColor=none;top=0;left=0;bottom=0;right=0;align=left;spacingLeft=6;overflow=hidden;rounded=0;shadow=0;glass=0;sketch=0;fontSize=9;" parent="AuQBV974TfrHUwsecErT-55" vertex="1">
          <mxGeometry x="30" width="150" height="30" as="geometry">
            <mxRectangle width="150" height="30" as="alternateBounds" />
          </mxGeometry>
        </mxCell>
        <mxCell id="AuQBV974TfrHUwsecErT-58" value="" style="shape=partialRectangle;collapsible=0;dropTarget=0;pointerEvents=0;fillColor=none;top=0;left=0;bottom=0;right=0;points=[[0,0.5],[1,0.5]];portConstraint=eastwest;rounded=0;shadow=0;glass=0;sketch=0;fontSize=9;" parent="AuQBV974TfrHUwsecErT-51" vertex="1">
          <mxGeometry y="90" width="180" height="30" as="geometry" />
        </mxCell>
        <mxCell id="AuQBV974TfrHUwsecErT-59" value="" style="shape=partialRectangle;connectable=0;fillColor=none;top=0;left=0;bottom=0;right=0;editable=1;overflow=hidden;rounded=0;shadow=0;glass=0;sketch=0;fontSize=9;" parent="AuQBV974TfrHUwsecErT-58" vertex="1">
          <mxGeometry width="30" height="30" as="geometry">
            <mxRectangle width="30" height="30" as="alternateBounds" />
          </mxGeometry>
        </mxCell>
        <mxCell id="AuQBV974TfrHUwsecErT-60" value="存储器id" style="shape=partialRectangle;connectable=0;fillColor=none;top=0;left=0;bottom=0;right=0;align=left;spacingLeft=6;overflow=hidden;rounded=0;shadow=0;glass=0;sketch=0;fontSize=9;" parent="AuQBV974TfrHUwsecErT-58" vertex="1">
          <mxGeometry x="30" width="150" height="30" as="geometry">
            <mxRectangle width="150" height="30" as="alternateBounds" />
          </mxGeometry>
        </mxCell>
        <mxCell id="AuQBV974TfrHUwsecErT-73" value="订阅" style="shape=table;startSize=30;container=1;collapsible=1;childLayout=tableLayout;fixedRows=1;rowLines=0;fontStyle=1;align=center;resizeLast=1;rounded=0;shadow=0;glass=0;sketch=0;fontSize=9;" parent="AuQBV974TfrHUwsecErT-1" vertex="1">
          <mxGeometry x="60" y="430" width="180" height="160" as="geometry" />
        </mxCell>
        <mxCell id="AuQBV974TfrHUwsecErT-74" value="" style="shape=partialRectangle;collapsible=0;dropTarget=0;pointerEvents=0;fillColor=none;top=0;left=0;bottom=1;right=0;points=[[0,0.5],[1,0.5]];portConstraint=eastwest;rounded=0;shadow=0;glass=0;sketch=0;fontSize=9;" parent="AuQBV974TfrHUwsecErT-73" vertex="1">
          <mxGeometry y="30" width="180" height="30" as="geometry" />
        </mxCell>
        <mxCell id="AuQBV974TfrHUwsecErT-75" value="PK" style="shape=partialRectangle;connectable=0;fillColor=none;top=0;left=0;bottom=0;right=0;fontStyle=1;overflow=hidden;rounded=0;shadow=0;glass=0;sketch=0;fontSize=9;" parent="AuQBV974TfrHUwsecErT-74" vertex="1">
          <mxGeometry width="30" height="30" as="geometry">
            <mxRectangle width="30" height="30" as="alternateBounds" />
          </mxGeometry>
        </mxCell>
        <mxCell id="AuQBV974TfrHUwsecErT-76" value="id" style="shape=partialRectangle;connectable=0;fillColor=none;top=0;left=0;bottom=0;right=0;align=left;spacingLeft=6;fontStyle=5;overflow=hidden;rounded=0;shadow=0;glass=0;sketch=0;fontSize=9;" parent="AuQBV974TfrHUwsecErT-74" vertex="1">
          <mxGeometry x="30" width="150" height="30" as="geometry">
            <mxRectangle width="150" height="30" as="alternateBounds" />
          </mxGeometry>
        </mxCell>
        <mxCell id="AuQBV974TfrHUwsecErT-77" value="" style="shape=partialRectangle;collapsible=0;dropTarget=0;pointerEvents=0;fillColor=none;top=0;left=0;bottom=0;right=0;points=[[0,0.5],[1,0.5]];portConstraint=eastwest;rounded=0;shadow=0;glass=0;sketch=0;fontSize=9;" parent="AuQBV974TfrHUwsecErT-73" vertex="1">
          <mxGeometry y="60" width="180" height="30" as="geometry" />
        </mxCell>
        <mxCell id="AuQBV974TfrHUwsecErT-78" value="" style="shape=partialRectangle;connectable=0;fillColor=none;top=0;left=0;bottom=0;right=0;editable=1;overflow=hidden;rounded=0;shadow=0;glass=0;sketch=0;fontSize=9;" parent="AuQBV974TfrHUwsecErT-77" vertex="1">
          <mxGeometry width="30" height="30" as="geometry">
            <mxRectangle width="30" height="30" as="alternateBounds" />
          </mxGeometry>
        </mxCell>
        <mxCell id="AuQBV974TfrHUwsecErT-79" value="名称" style="shape=partialRectangle;connectable=0;fillColor=none;top=0;left=0;bottom=0;right=0;align=left;spacingLeft=6;overflow=hidden;rounded=0;shadow=0;glass=0;sketch=0;fontSize=9;" parent="AuQBV974TfrHUwsecErT-77" vertex="1">
          <mxGeometry x="30" width="150" height="30" as="geometry">
            <mxRectangle width="150" height="30" as="alternateBounds" />
          </mxGeometry>
        </mxCell>
        <mxCell id="AuQBV974TfrHUwsecErT-80" value="" style="shape=partialRectangle;collapsible=0;dropTarget=0;pointerEvents=0;fillColor=none;top=0;left=0;bottom=0;right=0;points=[[0,0.5],[1,0.5]];portConstraint=eastwest;rounded=0;shadow=0;glass=0;sketch=0;fontSize=9;" parent="AuQBV974TfrHUwsecErT-73" vertex="1">
          <mxGeometry y="90" width="180" height="30" as="geometry" />
        </mxCell>
        <mxCell id="AuQBV974TfrHUwsecErT-81" value="" style="shape=partialRectangle;connectable=0;fillColor=none;top=0;left=0;bottom=0;right=0;editable=1;overflow=hidden;rounded=0;shadow=0;glass=0;sketch=0;fontSize=9;" parent="AuQBV974TfrHUwsecErT-80" vertex="1">
          <mxGeometry width="30" height="30" as="geometry">
            <mxRectangle width="30" height="30" as="alternateBounds" />
          </mxGeometry>
        </mxCell>
        <mxCell id="AuQBV974TfrHUwsecErT-82" value="描述" style="shape=partialRectangle;connectable=0;fillColor=none;top=0;left=0;bottom=0;right=0;align=left;spacingLeft=6;overflow=hidden;rounded=0;shadow=0;glass=0;sketch=0;fontSize=9;" parent="AuQBV974TfrHUwsecErT-80" vertex="1">
          <mxGeometry x="30" width="150" height="30" as="geometry">
            <mxRectangle width="150" height="30" as="alternateBounds" />
          </mxGeometry>
        </mxCell>
        <mxCell id="AuQBV974TfrHUwsecErT-83" value="" style="shape=partialRectangle;collapsible=0;dropTarget=0;pointerEvents=0;fillColor=none;top=0;left=0;bottom=0;right=0;points=[[0,0.5],[1,0.5]];portConstraint=eastwest;rounded=0;shadow=0;glass=0;sketch=0;fontSize=9;" parent="AuQBV974TfrHUwsecErT-73" vertex="1">
          <mxGeometry y="120" width="180" height="30" as="geometry" />
        </mxCell>
        <mxCell id="AuQBV974TfrHUwsecErT-84" value="" style="shape=partialRectangle;connectable=0;fillColor=none;top=0;left=0;bottom=0;right=0;editable=1;overflow=hidden;rounded=0;shadow=0;glass=0;sketch=0;fontSize=9;" parent="AuQBV974TfrHUwsecErT-83" vertex="1">
          <mxGeometry width="30" height="30" as="geometry">
            <mxRectangle width="30" height="30" as="alternateBounds" />
          </mxGeometry>
        </mxCell>
        <mxCell id="AuQBV974TfrHUwsecErT-85" value="地址(http/webSocket)" style="shape=partialRectangle;connectable=0;fillColor=none;top=0;left=0;bottom=0;right=0;align=left;spacingLeft=6;overflow=hidden;rounded=0;shadow=0;glass=0;sketch=0;fontSize=9;" parent="AuQBV974TfrHUwsecErT-83" vertex="1">
          <mxGeometry x="30" width="150" height="30" as="geometry">
            <mxRectangle width="150" height="30" as="alternateBounds" />
          </mxGeometry>
        </mxCell>
        <mxCell id="AuQBV974TfrHUwsecErT-92" value="主题-订阅关系" style="shape=table;startSize=30;container=1;collapsible=1;childLayout=tableLayout;fixedRows=1;rowLines=0;fontStyle=1;align=center;resizeLast=1;rounded=0;shadow=0;glass=0;sketch=0;fontSize=9;" parent="AuQBV974TfrHUwsecErT-1" vertex="1">
          <mxGeometry x="560" y="430" width="180" height="130" as="geometry" />
        </mxCell>
        <mxCell id="AuQBV974TfrHUwsecErT-93" value="" style="shape=partialRectangle;collapsible=0;dropTarget=0;pointerEvents=0;fillColor=none;top=0;left=0;bottom=1;right=0;points=[[0,0.5],[1,0.5]];portConstraint=eastwest;rounded=0;shadow=0;glass=0;sketch=0;fontSize=9;" parent="AuQBV974TfrHUwsecErT-92" vertex="1">
          <mxGeometry y="30" width="180" height="30" as="geometry" />
        </mxCell>
        <mxCell id="AuQBV974TfrHUwsecErT-94" value="PK" style="shape=partialRectangle;connectable=0;fillColor=none;top=0;left=0;bottom=0;right=0;fontStyle=1;overflow=hidden;rounded=0;shadow=0;glass=0;sketch=0;fontSize=9;" parent="AuQBV974TfrHUwsecErT-93" vertex="1">
          <mxGeometry width="30" height="30" as="geometry">
            <mxRectangle width="30" height="30" as="alternateBounds" />
          </mxGeometry>
        </mxCell>
        <mxCell id="AuQBV974TfrHUwsecErT-95" value="id" style="shape=partialRectangle;connectable=0;fillColor=none;top=0;left=0;bottom=0;right=0;align=left;spacingLeft=6;fontStyle=5;overflow=hidden;rounded=0;shadow=0;glass=0;sketch=0;fontSize=9;" parent="AuQBV974TfrHUwsecErT-93" vertex="1">
          <mxGeometry x="30" width="150" height="30" as="geometry">
            <mxRectangle width="150" height="30" as="alternateBounds" />
          </mxGeometry>
        </mxCell>
        <mxCell id="AuQBV974TfrHUwsecErT-96" value="" style="shape=partialRectangle;collapsible=0;dropTarget=0;pointerEvents=0;fillColor=none;top=0;left=0;bottom=0;right=0;points=[[0,0.5],[1,0.5]];portConstraint=eastwest;rounded=0;shadow=0;glass=0;sketch=0;fontSize=9;" parent="AuQBV974TfrHUwsecErT-92" vertex="1">
          <mxGeometry y="60" width="180" height="30" as="geometry" />
        </mxCell>
        <mxCell id="AuQBV974TfrHUwsecErT-97" value="" style="shape=partialRectangle;connectable=0;fillColor=none;top=0;left=0;bottom=0;right=0;editable=1;overflow=hidden;rounded=0;shadow=0;glass=0;sketch=0;fontSize=9;" parent="AuQBV974TfrHUwsecErT-96" vertex="1">
          <mxGeometry width="30" height="30" as="geometry">
            <mxRectangle width="30" height="30" as="alternateBounds" />
          </mxGeometry>
        </mxCell>
        <mxCell id="AuQBV974TfrHUwsecErT-98" value="主题id" style="shape=partialRectangle;connectable=0;fillColor=none;top=0;left=0;bottom=0;right=0;align=left;spacingLeft=6;overflow=hidden;rounded=0;shadow=0;glass=0;sketch=0;fontSize=9;" parent="AuQBV974TfrHUwsecErT-96" vertex="1">
          <mxGeometry x="30" width="150" height="30" as="geometry">
            <mxRectangle width="150" height="30" as="alternateBounds" />
          </mxGeometry>
        </mxCell>
        <mxCell id="AuQBV974TfrHUwsecErT-99" value="" style="shape=partialRectangle;collapsible=0;dropTarget=0;pointerEvents=0;fillColor=none;top=0;left=0;bottom=0;right=0;points=[[0,0.5],[1,0.5]];portConstraint=eastwest;rounded=0;shadow=0;glass=0;sketch=0;fontSize=9;" parent="AuQBV974TfrHUwsecErT-92" vertex="1">
          <mxGeometry y="90" width="180" height="30" as="geometry" />
        </mxCell>
        <mxCell id="AuQBV974TfrHUwsecErT-100" value="" style="shape=partialRectangle;connectable=0;fillColor=none;top=0;left=0;bottom=0;right=0;editable=1;overflow=hidden;rounded=0;shadow=0;glass=0;sketch=0;fontSize=9;" parent="AuQBV974TfrHUwsecErT-99" vertex="1">
          <mxGeometry width="30" height="30" as="geometry">
            <mxRectangle width="30" height="30" as="alternateBounds" />
          </mxGeometry>
        </mxCell>
        <mxCell id="AuQBV974TfrHUwsecErT-101" value="订阅id" style="shape=partialRectangle;connectable=0;fillColor=none;top=0;left=0;bottom=0;right=0;align=left;spacingLeft=6;overflow=hidden;rounded=0;shadow=0;glass=0;sketch=0;fontSize=9;" parent="AuQBV974TfrHUwsecErT-99" vertex="1">
          <mxGeometry x="30" width="150" height="30" as="geometry">
            <mxRectangle width="150" height="30" as="alternateBounds" />
          </mxGeometry>
        </mxCell>
        <mxCell id="AuQBV974TfrHUwsecErT-108" value="" style="shape=link;html=1;rounded=0;shadow=0;comic=0;sketch=0;fontSize=9;endFill=1;strokeColor=default;jumpStyle=none;entryX=-0.006;entryY=0.329;entryDx=0;entryDy=0;entryPerimeter=0;exitX=1.001;exitY=0.329;exitDx=0;exitDy=0;exitPerimeter=0;" parent="AuQBV974TfrHUwsecErT-1" source="AuQBV974TfrHUwsecErT-77" target="AuQBV974TfrHUwsecErT-96" edge="1">
          <mxGeometry relative="1" as="geometry">
            <mxPoint x="270" y="500" as="sourcePoint" />
            <mxPoint x="430" y="500" as="targetPoint" />
          </mxGeometry>
        </mxCell>
        <mxCell id="AuQBV974TfrHUwsecErT-109" value="N" style="resizable=0;html=1;align=left;verticalAlign=bottom;rounded=0;shadow=0;glass=0;sketch=0;fontSize=9;" parent="AuQBV974TfrHUwsecErT-108" connectable="0" vertex="1">
          <mxGeometry x="-1" relative="1" as="geometry">
            <mxPoint as="offset" />
          </mxGeometry>
        </mxCell>
        <mxCell id="AuQBV974TfrHUwsecErT-110" value="N" style="resizable=0;html=1;align=right;verticalAlign=bottom;rounded=0;shadow=0;glass=0;sketch=0;fontSize=9;" parent="AuQBV974TfrHUwsecErT-108" connectable="0" vertex="1">
          <mxGeometry x="1" relative="1" as="geometry" />
        </mxCell>
        <mxCell id="AuQBV974TfrHUwsecErT-114" value="" style="shape=link;html=1;rounded=0;shadow=0;comic=0;sketch=0;fontSize=9;endFill=1;strokeColor=default;jumpStyle=none;entryX=0.521;entryY=0.001;entryDx=0;entryDy=0;entryPerimeter=0;exitX=0.991;exitY=-0.033;exitDx=0;exitDy=0;exitPerimeter=0;" parent="AuQBV974TfrHUwsecErT-1" target="AuQBV974TfrHUwsecErT-92" edge="1" source="AuQBV974TfrHUwsecErT-42">
          <mxGeometry relative="1" as="geometry">
            <mxPoint x="510" y="310" as="sourcePoint" />
            <mxPoint x="670" y="310" as="targetPoint" />
          </mxGeometry>
        </mxCell>
        <mxCell id="AuQBV974TfrHUwsecErT-115" value="1" style="resizable=0;html=1;align=left;verticalAlign=bottom;rounded=0;shadow=0;glass=0;sketch=0;fontSize=9;" parent="AuQBV974TfrHUwsecErT-114" connectable="0" vertex="1">
          <mxGeometry x="-1" relative="1" as="geometry" />
        </mxCell>
        <mxCell id="AuQBV974TfrHUwsecErT-116" value="N" style="resizable=0;html=1;align=right;verticalAlign=bottom;rounded=0;shadow=0;glass=0;sketch=0;fontSize=9;" parent="AuQBV974TfrHUwsecErT-114" connectable="0" vertex="1">
          <mxGeometry x="1" relative="1" as="geometry">
            <mxPoint x="6" as="offset" />
          </mxGeometry>
        </mxCell>
        <mxCell id="AuQBV974TfrHUwsecErT-117" value="" style="shape=link;html=1;rounded=0;shadow=0;comic=0;sketch=0;fontSize=9;endFill=1;strokeColor=default;jumpStyle=none;exitX=0.5;exitY=0;exitDx=0;exitDy=0;" parent="AuQBV974TfrHUwsecErT-1" source="AuQBV974TfrHUwsecErT-38" edge="1">
          <mxGeometry relative="1" as="geometry">
            <mxPoint x="400" y="120" as="sourcePoint" />
            <mxPoint x="560" y="120" as="targetPoint" />
          </mxGeometry>
        </mxCell>
        <mxCell id="AuQBV974TfrHUwsecErT-118" value="1" style="resizable=0;html=1;align=left;verticalAlign=bottom;rounded=0;shadow=0;glass=0;sketch=0;fontSize=9;" parent="AuQBV974TfrHUwsecErT-117" connectable="0" vertex="1">
          <mxGeometry x="-1" relative="1" as="geometry">
            <mxPoint x="-14" as="offset" />
          </mxGeometry>
        </mxCell>
        <mxCell id="AuQBV974TfrHUwsecErT-119" value="N" style="resizable=0;html=1;align=right;verticalAlign=bottom;rounded=0;shadow=0;glass=0;sketch=0;fontSize=9;" parent="AuQBV974TfrHUwsecErT-117" connectable="0" vertex="1">
          <mxGeometry x="1" relative="1" as="geometry" />
        </mxCell>
        <mxCell id="AuQBV974TfrHUwsecErT-123" value="" style="shape=link;html=1;rounded=0;shadow=0;comic=0;sketch=0;fontSize=9;endFill=1;strokeColor=default;jumpStyle=none;" parent="AuQBV974TfrHUwsecErT-1" edge="1">
          <mxGeometry relative="1" as="geometry">
            <mxPoint x="240" y="120" as="sourcePoint" />
            <mxPoint x="560" y="120" as="targetPoint" />
          </mxGeometry>
        </mxCell>
        <mxCell id="AuQBV974TfrHUwsecErT-124" value="1" style="resizable=0;html=1;align=left;verticalAlign=bottom;rounded=0;shadow=0;glass=0;sketch=0;fontSize=9;" parent="AuQBV974TfrHUwsecErT-123" connectable="0" vertex="1">
          <mxGeometry x="-1" relative="1" as="geometry" />
        </mxCell>
        <mxCell id="AuQBV974TfrHUwsecErT-125" value="N" style="resizable=0;html=1;align=right;verticalAlign=bottom;rounded=0;shadow=0;glass=0;sketch=0;fontSize=9;" parent="AuQBV974TfrHUwsecErT-123" connectable="0" vertex="1">
          <mxGeometry x="1" relative="1" as="geometry" />
        </mxCell>
        <mxCell id="lEqNxPFebIAFdFd_Hiem-10" value="事件消息记录" style="shape=table;startSize=30;container=1;collapsible=1;childLayout=tableLayout;fixedRows=1;rowLines=0;fontStyle=1;align=center;resizeLast=1;" parent="AuQBV974TfrHUwsecErT-1" vertex="1">
          <mxGeometry x="-160" y="250" width="180" height="190" as="geometry" />
        </mxCell>
        <mxCell id="lEqNxPFebIAFdFd_Hiem-11" value="" style="shape=partialRectangle;collapsible=0;dropTarget=0;pointerEvents=0;fillColor=none;top=0;left=0;bottom=1;right=0;points=[[0,0.5],[1,0.5]];portConstraint=eastwest;" parent="lEqNxPFebIAFdFd_Hiem-10" vertex="1">
          <mxGeometry y="30" width="180" height="30" as="geometry" />
        </mxCell>
        <mxCell id="lEqNxPFebIAFdFd_Hiem-12" value="PK" style="shape=partialRectangle;connectable=0;fillColor=none;top=0;left=0;bottom=0;right=0;fontStyle=1;overflow=hidden;" parent="lEqNxPFebIAFdFd_Hiem-11" vertex="1">
          <mxGeometry width="30" height="30" as="geometry">
            <mxRectangle width="30" height="30" as="alternateBounds" />
          </mxGeometry>
        </mxCell>
        <mxCell id="lEqNxPFebIAFdFd_Hiem-13" value="id" style="shape=partialRectangle;connectable=0;fillColor=none;top=0;left=0;bottom=0;right=0;align=left;spacingLeft=6;fontStyle=5;overflow=hidden;" parent="lEqNxPFebIAFdFd_Hiem-11" vertex="1">
          <mxGeometry x="30" width="150" height="30" as="geometry">
            <mxRectangle width="150" height="30" as="alternateBounds" />
          </mxGeometry>
        </mxCell>
        <mxCell id="lEqNxPFebIAFdFd_Hiem-14" value="" style="shape=partialRectangle;collapsible=0;dropTarget=0;pointerEvents=0;fillColor=none;top=0;left=0;bottom=0;right=0;points=[[0,0.5],[1,0.5]];portConstraint=eastwest;" parent="lEqNxPFebIAFdFd_Hiem-10" vertex="1">
          <mxGeometry y="60" width="180" height="30" as="geometry" />
        </mxCell>
        <mxCell id="lEqNxPFebIAFdFd_Hiem-15" value="" style="shape=partialRectangle;connectable=0;fillColor=none;top=0;left=0;bottom=0;right=0;editable=1;overflow=hidden;" parent="lEqNxPFebIAFdFd_Hiem-14" vertex="1">
          <mxGeometry width="30" height="30" as="geometry">
            <mxRectangle width="30" height="30" as="alternateBounds" />
          </mxGeometry>
        </mxCell>
        <mxCell id="lEqNxPFebIAFdFd_Hiem-16" value="名称" style="shape=partialRectangle;connectable=0;fillColor=none;top=0;left=0;bottom=0;right=0;align=left;spacingLeft=6;overflow=hidden;" parent="lEqNxPFebIAFdFd_Hiem-14" vertex="1">
          <mxGeometry x="30" width="150" height="30" as="geometry">
            <mxRectangle width="150" height="30" as="alternateBounds" />
          </mxGeometry>
        </mxCell>
        <mxCell id="lEqNxPFebIAFdFd_Hiem-20" value="" style="shape=partialRectangle;collapsible=0;dropTarget=0;pointerEvents=0;fillColor=none;top=0;left=0;bottom=0;right=0;points=[[0,0.5],[1,0.5]];portConstraint=eastwest;" parent="lEqNxPFebIAFdFd_Hiem-10" vertex="1">
          <mxGeometry y="90" width="180" height="30" as="geometry" />
        </mxCell>
        <mxCell id="lEqNxPFebIAFdFd_Hiem-21" value="" style="shape=partialRectangle;connectable=0;fillColor=none;top=0;left=0;bottom=0;right=0;editable=1;overflow=hidden;" parent="lEqNxPFebIAFdFd_Hiem-20" vertex="1">
          <mxGeometry width="30" height="30" as="geometry">
            <mxRectangle width="30" height="30" as="alternateBounds" />
          </mxGeometry>
        </mxCell>
        <mxCell id="lEqNxPFebIAFdFd_Hiem-22" value="主题id" style="shape=partialRectangle;connectable=0;fillColor=none;top=0;left=0;bottom=0;right=0;align=left;spacingLeft=6;overflow=hidden;" parent="lEqNxPFebIAFdFd_Hiem-20" vertex="1">
          <mxGeometry x="30" width="150" height="30" as="geometry">
            <mxRectangle width="150" height="30" as="alternateBounds" />
          </mxGeometry>
        </mxCell>
        <mxCell id="lEqNxPFebIAFdFd_Hiem-17" value="" style="shape=partialRectangle;collapsible=0;dropTarget=0;pointerEvents=0;fillColor=none;top=0;left=0;bottom=0;right=0;points=[[0,0.5],[1,0.5]];portConstraint=eastwest;" parent="lEqNxPFebIAFdFd_Hiem-10" vertex="1">
          <mxGeometry y="120" width="180" height="30" as="geometry" />
        </mxCell>
        <mxCell id="lEqNxPFebIAFdFd_Hiem-18" value="" style="shape=partialRectangle;connectable=0;fillColor=none;top=0;left=0;bottom=0;right=0;editable=1;overflow=hidden;" parent="lEqNxPFebIAFdFd_Hiem-17" vertex="1">
          <mxGeometry width="30" height="30" as="geometry">
            <mxRectangle width="30" height="30" as="alternateBounds" />
          </mxGeometry>
        </mxCell>
        <mxCell id="lEqNxPFebIAFdFd_Hiem-19" value="订阅id" style="shape=partialRectangle;connectable=0;fillColor=none;top=0;left=0;bottom=0;right=0;align=left;spacingLeft=6;overflow=hidden;" parent="lEqNxPFebIAFdFd_Hiem-17" vertex="1">
          <mxGeometry x="30" width="150" height="30" as="geometry">
            <mxRectangle width="150" height="30" as="alternateBounds" />
          </mxGeometry>
        </mxCell>
        <mxCell id="Pe53c87VrXziWp1Mg22o-9" value="" style="shape=partialRectangle;collapsible=0;dropTarget=0;pointerEvents=0;fillColor=none;top=0;left=0;bottom=0;right=0;points=[[0,0.5],[1,0.5]];portConstraint=eastwest;" vertex="1" parent="lEqNxPFebIAFdFd_Hiem-10">
          <mxGeometry y="150" width="180" height="30" as="geometry" />
        </mxCell>
        <mxCell id="Pe53c87VrXziWp1Mg22o-10" value="" style="shape=partialRectangle;connectable=0;fillColor=none;top=0;left=0;bottom=0;right=0;editable=1;overflow=hidden;" vertex="1" parent="Pe53c87VrXziWp1Mg22o-9">
          <mxGeometry width="30" height="30" as="geometry">
            <mxRectangle width="30" height="30" as="alternateBounds" />
          </mxGeometry>
        </mxCell>
        <mxCell id="Pe53c87VrXziWp1Mg22o-11" value="内容" style="shape=partialRectangle;connectable=0;fillColor=none;top=0;left=0;bottom=0;right=0;align=left;spacingLeft=6;overflow=hidden;" vertex="1" parent="Pe53c87VrXziWp1Mg22o-9">
          <mxGeometry x="30" width="150" height="30" as="geometry">
            <mxRectangle width="150" height="30" as="alternateBounds" />
          </mxGeometry>
        </mxCell>
        <mxCell id="lEqNxPFebIAFdFd_Hiem-23" value="" style="shape=link;html=1;rounded=0;" parent="AuQBV974TfrHUwsecErT-1" edge="1" target="Pe53c87VrXziWp1Mg22o-13">
          <mxGeometry relative="1" as="geometry">
            <mxPoint x="20" y="329.71000000000004" as="sourcePoint" />
            <mxPoint x="320" y="330" as="targetPoint" />
          </mxGeometry>
        </mxCell>
        <mxCell id="lEqNxPFebIAFdFd_Hiem-24" value="N" style="resizable=0;html=1;align=left;verticalAlign=bottom;" parent="lEqNxPFebIAFdFd_Hiem-23" connectable="0" vertex="1">
          <mxGeometry x="-1" relative="1" as="geometry" />
        </mxCell>
        <mxCell id="lEqNxPFebIAFdFd_Hiem-25" value="1" style="resizable=0;html=1;align=right;verticalAlign=bottom;" parent="lEqNxPFebIAFdFd_Hiem-23" connectable="0" vertex="1">
          <mxGeometry x="1" relative="1" as="geometry" />
        </mxCell>
        <mxCell id="lEqNxPFebIAFdFd_Hiem-26" value="" style="shape=link;html=1;rounded=0;entryX=0.5;entryY=0;entryDx=0;entryDy=0;exitX=1;exitY=0.667;exitDx=0;exitDy=0;exitPerimeter=0;" parent="AuQBV974TfrHUwsecErT-1" source="lEqNxPFebIAFdFd_Hiem-20" target="AuQBV974TfrHUwsecErT-73" edge="1">
          <mxGeometry relative="1" as="geometry">
            <mxPoint x="50" y="370" as="sourcePoint" />
            <mxPoint x="210" y="370" as="targetPoint" />
          </mxGeometry>
        </mxCell>
        <mxCell id="lEqNxPFebIAFdFd_Hiem-27" value="N" style="resizable=0;html=1;align=left;verticalAlign=bottom;" parent="lEqNxPFebIAFdFd_Hiem-26" connectable="0" vertex="1">
          <mxGeometry x="-1" relative="1" as="geometry" />
        </mxCell>
        <mxCell id="lEqNxPFebIAFdFd_Hiem-28" value="1" style="resizable=0;html=1;align=right;verticalAlign=bottom;" parent="lEqNxPFebIAFdFd_Hiem-26" connectable="0" vertex="1">
          <mxGeometry x="1" relative="1" as="geometry" />
        </mxCell>
      </root>
    </mxGraphModel>
  </diagram>
</mxfile>
